<mxfile host="app.diagrams.net" modified="2023-04-18T08:46:59.799Z" agent="Mozilla/5.0 (Windows NT 10.0; Win64; x64; rv:109.0) Gecko/20100101 Firefox/112.0" version="21.1.8" etag="XBJCGvhC2rQNi23P_eGA" type="github">
  <diagram name="Seite-1" id="SO_sRnR5JkMkmJjuHY2v">
    <mxGraphModel>
      <root>
        <mxCell id="0" />
        <mxCell id="1" parent="0" />
      </root>
    </mxGraphModel>
  </diagram>
</mxfile>
